<svg width="96" height="22" viewBox="0 0 96 22" fill="none" xmlns="http://www.w3.org/2000/svg">
<path d="M6.09385 9.84835H8.75088C9.28999 9.84835 9.78096 9.78096 10.2238 9.64619C10.6666 9.51141 11.0421 9.28036 11.3502 8.95305C11.6775 8.60648 11.9278 8.14439 12.1011 7.56677C12.2743 6.98915 12.361 6.25751 12.361 5.37183C12.361 4.37063 12.2262 3.57159 11.9567 2.97472C11.7064 2.3586 11.3694 1.89651 10.9458 1.58844C10.5415 1.28038 10.0794 1.07822 9.55955 0.981947C9.05894 0.885677 8.55834 0.837543 8.05774 0.837543C7.71117 0.837543 7.35498 0.84717 6.98915 0.866423C6.64258 0.866423 6.34415 0.885677 6.09385 0.924186V9.84835ZM6.09385 20.6787C6.3249 20.6979 6.5752 20.7268 6.84475 20.7653C7.13356 20.7845 7.53789 20.7942 8.05774 20.7942C8.96268 20.7942 9.73283 20.7075 10.3682 20.5342C11.0228 20.361 11.5523 20.0625 11.9567 19.6389C12.3802 19.1961 12.6883 18.6185 12.8808 17.9061C13.0734 17.1937 13.1696 16.2984 13.1696 15.2202C13.1696 13.6799 12.8423 12.4669 12.1877 11.5812C11.5331 10.6955 10.5607 10.2527 9.27074 10.2527H6.09385V20.6787ZM0 20.6787H3.20577V0.924186H0V0.519855H5.05414C5.34295 0.519855 5.63176 0.519855 5.92056 0.519855C6.22863 0.5006 6.53669 0.481346 6.84475 0.462092C7.15281 0.462092 7.45125 0.462092 7.74005 0.462092C8.02886 0.442838 8.30804 0.433212 8.5776 0.433212C9.98313 0.433212 11.1384 0.606496 12.0433 0.953066C12.9482 1.28038 13.6606 1.69434 14.1805 2.19494C14.7003 2.67629 15.0565 3.20577 15.2491 3.78338C15.4416 4.34175 15.5379 4.85197 15.5379 5.31407C15.5379 5.94944 15.3935 6.53669 15.1047 7.0758C14.8351 7.6149 14.4597 8.08662 13.9783 8.49096C13.5162 8.89529 12.9771 9.2226 12.361 9.4729C11.7449 9.7232 11.0999 9.88686 10.426 9.96388V10.0216C11.1191 10.0794 11.8219 10.2334 12.5343 10.4837C13.2659 10.7148 13.9205 11.0517 14.4982 11.4946C15.095 11.9181 15.5764 12.4476 15.9422 13.083C16.308 13.7184 16.4909 14.45 16.4909 15.2779C16.4909 16.1444 16.3273 16.9434 16 17.675C15.6726 18.3874 15.1817 19.0036 14.527 19.5234C13.8724 20.0433 13.0445 20.4572 12.0433 20.7653C11.0421 21.0541 9.87723 21.1985 8.54872 21.1985C8.27916 21.1985 8.00961 21.1889 7.74005 21.1696C7.48975 21.1696 7.2202 21.16 6.93139 21.1407C6.64258 21.1215 6.34415 21.1022 6.03609 21.083C5.72803 21.083 5.40071 21.083 5.05414 21.083H0V20.6787Z" fill="white"/>
<path d="M23.6243 20.6787H26.83V0.924186H25.1549C24.7699 0.924186 24.3367 0.962694 23.8553 1.03971C23.374 1.09747 22.883 1.28038 22.3824 1.58844C21.901 1.89651 21.4293 2.38748 20.9672 3.06136C20.5244 3.716 20.1393 4.63055 19.812 5.80504H19.4943V0.519855H37.0538V5.80504H36.7362C36.4088 4.63055 36.0141 3.716 35.552 3.06136C35.1092 2.38748 34.6375 1.89651 34.1369 1.58844C33.6555 1.28038 33.1742 1.09747 32.6928 1.03971C32.2115 0.962694 31.7783 0.924186 31.3932 0.924186H29.7181V20.6787H32.9239V21.083H23.6243V20.6787Z" fill="white"/>
<path d="M45.3253 3.84115L42.1484 12.2455H48.5021L45.3253 3.84115ZM35.939 20.6787H38.4805L46.2783 0H46.9715L54.827 20.6787H57.3974V21.083H48.5021V20.6787H51.7079L48.6754 12.6498H41.9751L38.9426 20.6787H42.1484V21.083H35.939V20.6787Z" fill="white"/>
<path d="M64.3349 9.84835H66.992C67.5311 9.84835 68.022 9.78096 68.4649 9.64619C68.9077 9.51141 69.2832 9.28036 69.5912 8.95305C69.9185 8.60648 70.1688 8.14439 70.3421 7.56677C70.5154 6.98915 70.6021 6.25751 70.6021 5.37183C70.6021 4.37063 70.4673 3.57159 70.1977 2.97472C69.9474 2.3586 69.6105 1.89651 69.1869 1.58844C68.7826 1.28038 68.3205 1.07822 67.8006 0.981947C67.3 0.885677 66.7994 0.837543 66.2988 0.837543C65.9522 0.837543 65.596 0.84717 65.2302 0.866423C64.8836 0.866423 64.5852 0.885677 64.3349 0.924186V9.84835ZM58.2411 20.6787H61.4468V0.924186H58.2411V0.519855H63.7284C63.9595 0.519855 64.1905 0.519855 64.4216 0.519855C64.6526 0.5006 64.8836 0.481346 65.1147 0.462092C65.3457 0.462092 65.5768 0.462092 65.8078 0.462092C66.0389 0.442838 66.2699 0.433212 66.501 0.433212C67.637 0.433212 68.6382 0.5006 69.5046 0.635378C70.371 0.750901 71.1797 1.1071 71.9306 1.70397C72.6044 2.22382 73.0762 2.81106 73.3457 3.4657C73.6345 4.12033 73.7789 4.73645 73.7789 5.31407C73.7789 5.60288 73.7212 5.97833 73.6057 6.44042C73.5094 6.88326 73.2783 7.34535 72.9125 7.8267C72.5659 8.28879 72.0557 8.722 71.3818 9.12633C70.7079 9.51141 69.8126 9.77134 68.6959 9.90611V9.96388C69.004 10.0024 69.4179 10.0794 69.9378 10.1949C70.4769 10.2912 71.016 10.4645 71.5551 10.7148C72.1135 10.9651 72.6237 11.302 73.0858 11.7256C73.5479 12.1299 73.8752 12.6594 74.0677 13.314C74.1833 13.6991 74.2603 14.142 74.2988 14.6426C74.3566 15.1239 74.3951 15.6245 74.4143 16.1444C74.4528 16.6642 74.4817 17.1648 74.501 17.6462C74.5395 18.1275 74.5972 18.5318 74.6742 18.8592C74.7898 19.3598 74.9727 19.8122 75.223 20.2166C75.4733 20.6209 75.8776 20.8231 76.436 20.8231C76.6863 20.8231 76.9462 20.7749 77.2158 20.6787C77.4853 20.5824 77.726 20.4284 77.9378 20.2166L78.1977 20.5342C78.1014 20.6113 77.9859 20.6979 77.8511 20.7942C77.7356 20.8712 77.5816 20.9482 77.389 21.0252C77.1965 21.1022 76.9558 21.16 76.667 21.1985C76.3975 21.2563 76.0605 21.2852 75.6562 21.2852C74.886 21.2852 74.241 21.1889 73.7212 20.9963C73.2206 20.8038 72.8162 20.5246 72.5082 20.1588C72.2001 19.7737 71.9691 19.3116 71.815 18.7725C71.6803 18.2142 71.584 17.5692 71.5262 16.8375L71.3241 14.2094C71.2471 13.2467 71.0545 12.4958 70.7465 11.9567C70.4384 11.4175 70.0726 11.0228 69.649 10.7725C69.2447 10.5222 68.8211 10.3778 68.3782 10.3393C67.9354 10.2816 67.5503 10.2527 67.223 10.2527H64.3349V20.6787H67.5407V21.083H58.2411V20.6787Z" fill="white"/>
<path d="M82.5704 20.6787H85.7762V0.924186H84.1011C83.716 0.924186 83.2828 0.962694 82.8015 1.03971C82.3201 1.09747 81.8292 1.28038 81.3286 1.58844C80.8472 1.89651 80.3755 2.38748 79.9134 3.06136C79.4706 3.716 79.0855 4.63055 78.7582 5.80504H78.4405V0.519855H96V5.80504H95.6823C95.355 4.63055 94.9603 3.716 94.4982 3.06136C94.0554 2.38748 93.5836 1.89651 93.083 1.58844C92.6017 1.28038 92.1203 1.09747 91.639 1.03971C91.1577 0.962694 90.7244 0.924186 90.3394 0.924186H88.6643V20.6787H91.87V21.083H82.5704V20.6787Z" fill="white"/>
</svg>
