<svg width="24" height="25" viewBox="0 0 24 25" fill="none" xmlns="http://www.w3.org/2000/svg">
<path d="M18.0363 4.70569C18.5459 4.61507 19.0814 4.62106 19.4806 5.02015C19.8798 5.4193 19.8857 5.95485 19.7951 6.46448C19.7037 6.97781 19.4806 7.64118 19.2101 8.45276L17.047 14.943C16.7766 15.7541 16.5677 16.3818 16.3869 16.8453C16.2127 17.2916 16.0365 17.6645 15.8039 17.9069C14.8201 18.9306 13.1821 18.9306 12.1984 17.9069C11.9657 17.6645 11.7895 17.2917 11.6154 16.8453C11.4345 16.3818 11.2256 15.7542 10.9552 14.943C10.8404 14.5986 10.7995 14.4803 10.7462 14.3795C10.6054 14.1134 10.3874 13.8953 10.1212 13.7545C10.0204 13.7012 9.90237 13.6604 9.55776 13.5455C8.74642 13.2751 8.119 13.0663 7.65542 12.8854C7.20899 12.7112 6.83625 12.5351 6.59389 12.3024C5.5703 11.3186 5.57023 9.6806 6.59389 8.6969C6.83626 8.46428 7.20915 8.28802 7.65542 8.1139C8.11898 7.93305 8.74656 7.72414 9.55776 7.45374L16.048 5.29065C16.8596 5.02011 17.5229 4.79701 18.0363 4.70569ZM18.7736 5.72718C18.7358 5.68941 18.6378 5.61418 18.2111 5.69007C17.7874 5.76546 17.2082 5.95764 16.3644 6.2389L9.87319 8.40296C9.0515 8.67685 8.45307 8.87607 8.0187 9.04554C7.56814 9.22134 7.3695 9.3379 7.28628 9.41761C6.67209 10.0078 6.67216 10.9914 7.28628 11.5817C7.36935 11.6614 7.56767 11.7778 8.0187 11.9537C8.45309 12.1232 9.05135 12.3224 9.87319 12.5963C10.1862 12.7007 10.398 12.7697 10.589 12.8707C11.0325 13.1053 11.3954 13.4683 11.63 13.9117C11.731 14.1027 11.8001 14.3147 11.9044 14.6276C12.1783 15.4492 12.3776 16.0477 12.547 16.4821C12.7229 16.9329 12.8394 17.1313 12.9191 17.2145C13.5093 17.8287 14.4929 17.8287 15.0832 17.2145C15.1629 17.1313 15.2794 16.9326 15.4552 16.4821C15.6247 16.0477 15.8239 15.4492 16.0978 14.6276L18.2619 8.13636C18.5431 7.29265 18.7353 6.71334 18.8107 6.28968C18.8866 5.86264 18.8113 5.7649 18.7736 5.72718Z" fill="white"/>
</svg>
