<svg width="25" height="24" viewBox="0 0 25 24" fill="none" xmlns="http://www.w3.org/2000/svg">
<path d="M18.5363 4.20573C19.046 4.11507 19.5814 4.121 19.9806 4.52018C20.3799 4.9194 20.3857 5.45481 20.2951 5.96452C20.2038 6.4779 19.9807 7.1411 19.7101 7.9528L17.547 14.443C17.2766 15.2543 17.0677 15.8818 16.8869 16.3454C16.7127 16.7918 16.5366 17.1645 16.3039 17.4069C15.3201 18.4306 13.6821 18.4306 12.6984 17.4069C12.4657 17.1645 12.2896 16.7918 12.1154 16.3454C11.9345 15.8818 11.7257 15.2543 11.4552 14.443C11.3404 14.0985 11.2996 13.9804 11.2463 13.8796C11.1055 13.6134 10.8875 13.3953 10.6213 13.2546C10.5205 13.2013 10.4024 13.1604 10.0578 13.0456C9.24646 12.7751 8.61902 12.5663 8.15544 12.3854C7.70903 12.2112 7.33627 12.0352 7.09392 11.8024C6.07028 10.8187 6.07024 9.18065 7.09392 8.19694C7.33628 7.96422 7.70905 7.7881 8.15544 7.61393C8.61902 7.43306 9.24647 7.22421 10.0578 6.95377L16.548 4.79069C17.3598 4.52011 18.0229 4.29706 18.5363 4.20573ZM19.2736 5.22721C19.2358 5.18946 19.1382 5.11413 18.7111 5.1901C18.2874 5.2655 17.7083 5.45763 16.8644 5.73893L10.3732 7.90299C9.5514 8.17693 8.95311 8.37609 8.51872 8.54557C8.06781 8.72151 7.86941 8.83794 7.7863 8.91764C7.1721 9.50786 7.17214 10.4915 7.7863 11.0817C7.86937 11.1614 8.06772 11.2778 8.51872 11.4538C8.95311 11.6233 9.55138 11.8224 10.3732 12.0964C10.6862 12.2007 10.898 12.2698 11.089 12.3708C11.5326 12.6054 11.8954 12.9682 12.13 13.4118C12.231 13.6028 12.3001 13.8146 12.4045 14.1276C12.6784 14.9494 12.8776 15.5477 13.047 15.9821C13.223 16.433 13.3394 16.6314 13.4191 16.7145C14.0093 17.3287 14.9929 17.3287 15.5832 16.7145C15.6629 16.6314 15.7793 16.433 15.9552 15.9821C16.1247 15.5477 16.3239 14.9494 16.5978 14.1276L18.7619 7.63639C19.0432 6.79254 19.2353 6.21342 19.3107 5.78971C19.3867 5.36246 19.3113 5.26494 19.2736 5.22721Z" fill="black"/>
</svg>
