<svg width="22" height="22" viewBox="0 0 22 22" fill="none" xmlns="http://www.w3.org/2000/svg">
<path d="M11.6318 1V0.5V1ZM12.4629 1.07031L12.6469 0.60541L12.6467 0.605334L12.4629 1.07031ZM12.9834 1.54199L13.4278 1.31292L13.4278 1.31287L12.9834 1.54199ZM13.1357 2.36133L13.6333 2.31165L13.1357 2.36133ZM13.4307 3.81836L13.0331 4.12154L13.0332 4.12167L13.4307 3.81836ZM14.3594 4.20312L14.426 4.69866L14.4262 4.69864L14.3594 4.20312ZM15.5977 3.38086L15.2811 2.99385L15.5977 3.38086ZM16.2861 2.90918L16.1342 2.43283L16.1341 2.43285L16.2861 2.90918ZM16.9873 2.94434L17.1861 2.48554L17.186 2.48551L16.9873 2.94434ZM17.625 3.48242L17.2714 3.83598L17.625 3.48242ZM18.5176 4.375L18.8711 4.02145L18.5176 4.375ZM19.0557 5.0127L19.5145 4.81409L19.5145 4.81392L19.0557 5.0127ZM19.0908 5.71387L19.5671 5.86612L19.5671 5.8659L19.0908 5.71387ZM18.6182 6.40137L19.0051 6.71807L18.6182 6.40137ZM17.7969 7.63965L17.3014 7.57247L17.3014 7.57288L17.7969 7.63965ZM18.1816 8.56836L17.8783 8.96587L17.8784 8.96594L18.1816 8.56836ZM19.6387 8.86328L19.6885 8.36577L19.6387 8.86328ZM20.459 9.0166L20.6885 8.57239L20.6883 8.57228L20.459 9.0166ZM20.9297 9.53711L21.3946 9.35318L21.3946 9.35317L20.9297 9.53711ZM21 10.3682H21.5H21ZM21 11.6318H21.5H21ZM20.9297 12.4629L21.3946 12.6469L21.3947 12.6467L20.9297 12.4629ZM20.458 12.9834L20.6871 13.4278L20.6871 13.4278L20.458 12.9834ZM19.6387 13.1357L19.6884 13.6333L19.6387 13.1357ZM18.1826 13.4307L17.8795 13.033L17.8795 13.033L18.1826 13.4307ZM17.7979 14.3594L17.3023 14.4262L17.3023 14.4262L17.7979 14.3594ZM18.6191 15.5977L19.0061 15.281L18.6191 15.5977ZM19.0908 16.2842L19.5671 16.1319L19.567 16.1317L19.0908 16.2842ZM19.0557 16.9863L19.5144 17.1852L19.5145 17.185L19.0557 16.9863ZM16.9873 19.0547L17.186 19.5135L17.1861 19.5135L16.9873 19.0547ZM16.2861 19.0898L16.1341 19.5662L16.1342 19.5662L16.2861 19.0898ZM15.5977 18.6182L15.9142 18.2312L15.5977 18.6182ZM14.3584 17.7959L14.4249 17.3003L14.4246 17.3003L14.3584 17.7959ZM13.4307 18.1807L13.0332 17.8774L13.0332 17.8774L13.4307 18.1807ZM13.1357 19.6377L12.6382 19.588L13.1357 19.6377ZM12.9834 20.458L13.4278 20.6872L13.4279 20.687L12.9834 20.458ZM12.4629 20.9297L12.6468 21.3946L12.6469 21.3946L12.4629 20.9297ZM10.3682 21V21.5V21ZM9.53711 20.9297L9.35317 21.3946L9.35318 21.3946L9.53711 20.9297ZM9.0166 20.459L8.57228 20.6883L8.57239 20.6885L9.0166 20.459ZM8.86328 19.6387L8.36577 19.6885L8.86328 19.6387ZM8.56836 18.1816L8.96594 17.8784L8.96587 17.8783L8.56836 18.1816ZM7.63965 17.7969L7.57288 17.3014L7.57247 17.3014L7.63965 17.7969ZM6.40137 18.6182L6.71807 19.0051L6.40137 18.6182ZM5.71387 19.0908L5.8659 19.5671L5.86612 19.5671L5.71387 19.0908ZM5.0127 19.0557L4.81392 19.5145L4.81409 19.5145L5.0127 19.0557ZM3.48242 17.625L3.12887 17.9786L3.48242 17.625ZM2.94434 16.9873L2.48551 17.186L2.48554 17.1861L2.94434 16.9873ZM2.90918 16.2861L2.43285 16.1341L2.43283 16.1342L2.90918 16.2861ZM3.38086 15.5977L2.99385 15.2811L3.38086 15.5977ZM4.20312 14.3594L4.69864 14.4262L4.69866 14.426L4.20312 14.3594ZM3.81836 13.4307L4.12167 13.0332L4.12154 13.0331L3.81836 13.4307ZM2.36133 13.1357L2.31165 13.6333L2.36133 13.1357ZM1.54199 12.9834L1.31287 13.4278L1.31292 13.4278L1.54199 12.9834ZM1.07031 12.4629L0.605334 12.6467L0.60541 12.6469L1.07031 12.4629ZM1 11.6318H0.5H1ZM1 10.3682H0.5H1ZM1.07031 9.53711L0.605374 9.35318L0.605357 9.35322L1.07031 9.53711ZM1.54102 9.0166L1.31173 8.57227L1.31149 8.57239L1.54102 9.0166ZM2.36133 8.86328L2.31153 8.36577L2.36133 8.86328ZM3.81836 8.56836L4.12169 8.96584L4.12177 8.96578L3.81836 8.56836ZM4.20312 7.64062L4.69869 7.57415L4.69866 7.57398L4.20312 7.64062ZM3.38086 6.40137L2.9939 6.71801L3.38086 6.40137ZM2.90918 5.71387L2.43284 5.86586L2.43289 5.86601L2.90918 5.71387ZM2.94434 5.0127L2.48554 4.81394L2.4855 4.81402L2.94434 5.0127ZM5.0127 2.94434L4.81395 2.48553L4.81394 2.48554L5.0127 2.94434ZM5.71387 2.90918L5.86591 2.43286L5.86583 2.43283L5.71387 2.90918ZM6.40234 3.38086L6.08578 3.76788L6.40234 3.38086ZM7.64062 4.20215L7.57405 4.6977L7.57412 4.69771L7.64062 4.20215ZM8.56836 3.81738L8.96584 4.12071L8.96591 4.12062L8.56836 3.81738ZM8.86328 2.36133L9.36079 2.41114L8.86328 2.36133ZM9.0166 1.54102L8.5724 1.31149L8.57226 1.31175L9.0166 1.54102ZM9.53711 1.07031L9.35325 0.605343L9.35318 0.60537L9.53711 1.07031ZM11.6318 1V1.5C11.8562 1.5 12.0002 1.50033 12.1108 1.50777C12.2164 1.51487 12.2579 1.52693 12.2791 1.53529L12.4629 1.07031L12.6467 0.605334C12.4907 0.543659 12.3346 0.520562 12.1779 0.510022C12.0261 0.499811 11.8432 0.5 11.6318 0.5V1ZM12.4629 1.07031L12.2789 1.53522C12.3909 1.57958 12.4834 1.66326 12.539 1.77112L12.9834 1.54199L13.4278 1.31287C13.2617 0.990726 12.9846 0.739096 12.6469 0.60541L12.4629 1.07031ZM12.9834 1.54199L12.539 1.77107C12.5494 1.79127 12.5655 1.83126 12.583 1.93549C12.6013 2.04465 12.6159 2.18779 12.6382 2.41101L13.1357 2.36133L13.6333 2.31165C13.6123 2.10143 13.5943 1.91955 13.5691 1.76971C13.5431 1.61495 13.5047 1.46199 13.4278 1.31292L12.9834 1.54199ZM13.1357 2.36133L12.6382 2.41101C12.6784 2.81309 12.7111 3.14429 12.7574 3.40175C12.8029 3.65434 12.8727 3.91118 13.0331 4.12154L13.4307 3.81836L13.8283 3.51518C13.8169 3.50034 13.7802 3.43907 13.7416 3.22464C13.7039 3.01509 13.6751 2.73037 13.6333 2.31165L13.1357 2.36133ZM13.4307 3.81836L13.0332 4.12167C13.3599 4.54993 13.8918 4.7705 14.426 4.69866L14.3594 4.20312L14.2927 3.70759C14.1148 3.73151 13.9372 3.65794 13.8282 3.51505L13.4307 3.81836ZM14.3594 4.20312L14.4262 4.69864C14.6887 4.66324 14.9196 4.5305 15.13 4.38402C15.3444 4.23472 15.6017 4.02356 15.9142 3.76787L15.5977 3.38086L15.2811 2.99385C14.9551 3.26053 14.7335 3.44158 14.5586 3.56335C14.3796 3.68796 14.3107 3.70516 14.2925 3.70761L14.3594 4.20312ZM15.5977 3.38086L15.9142 3.76787C16.2861 3.46368 16.3696 3.40738 16.4381 3.38551L16.2861 2.90918L16.1341 2.43285C15.8395 2.52688 15.5845 2.74567 15.2811 2.99385L15.5977 3.38086ZM16.2861 2.90918L16.4381 3.38553C16.5531 3.34884 16.6775 3.35505 16.7886 3.40316L16.9873 2.94434L17.186 2.48551C16.8534 2.34147 16.4798 2.32256 16.1342 2.43283L16.2861 2.90918ZM16.9873 2.94434L16.7886 3.40314C16.8095 3.41222 16.8474 3.43307 16.9272 3.50272C17.0106 3.57562 17.1127 3.67728 17.2714 3.83598L17.625 3.48242L17.9786 3.12887C17.829 2.97927 17.6997 2.84976 17.5851 2.74964C17.4668 2.64626 17.34 2.55222 17.1861 2.48554L16.9873 2.94434ZM17.625 3.48242L17.2714 3.83598L18.164 4.72855L18.5176 4.375L18.8711 4.02145L17.9786 3.12887L17.625 3.48242ZM18.5176 4.375L18.164 4.72855C18.3227 4.8872 18.4243 4.98937 18.4973 5.07283C18.5669 5.1526 18.5878 5.19054 18.5969 5.21147L19.0557 5.0127L19.5145 4.81392C19.4478 4.66002 19.3537 4.53323 19.2503 4.41491C19.1502 4.30029 19.0207 4.17103 18.8711 4.02145L18.5176 4.375ZM19.0557 5.0127L18.5968 5.2113C18.645 5.32255 18.6511 5.44702 18.6145 5.56184L19.0908 5.71387L19.5671 5.8659C19.6775 5.52012 19.6584 5.14655 19.5145 4.81409L19.0557 5.0127ZM19.0908 5.71387L18.6146 5.56162C18.6078 5.58283 18.591 5.6223 18.5293 5.7087C18.4648 5.79912 18.3736 5.91074 18.2313 6.08466L18.6182 6.40137L19.0051 6.71807C19.1388 6.55473 19.255 6.41334 19.3432 6.28969C19.4344 6.16202 19.5158 6.02638 19.5671 5.86612L19.0908 5.71387ZM18.6182 6.40137L18.2313 6.08466C17.9753 6.39732 17.7645 6.65454 17.6153 6.86931C17.4688 7.08009 17.3369 7.31073 17.3014 7.57247L17.7969 7.63965L18.2923 7.70682C18.2949 7.68797 18.3124 7.61852 18.4366 7.43983C18.5579 7.26513 18.7387 7.04351 19.0051 6.71807L18.6182 6.40137ZM17.7969 7.63965L17.3014 7.57288C17.2293 8.1073 17.45 8.63907 17.8783 8.96587L18.1816 8.56836L18.4849 8.17085C18.3419 8.06172 18.2684 7.88422 18.2924 7.70642L17.7969 7.63965ZM18.1816 8.56836L17.8784 8.96594C18.0888 9.12639 18.3457 9.1961 18.5982 9.24152C18.8556 9.2878 19.1868 9.32056 19.5889 9.3608L19.6387 8.86328L19.6885 8.36577C19.2695 8.32384 18.9848 8.295 18.7752 8.25731C18.5608 8.21874 18.4996 8.18207 18.4848 8.17078L18.1816 8.56836ZM19.6387 8.86328L19.5889 9.3608C20.0665 9.40859 20.1658 9.42795 20.2297 9.46092L20.459 9.0166L20.6883 8.57228C20.4135 8.43048 20.0783 8.40478 19.6885 8.36577L19.6387 8.86328ZM20.459 9.0166L20.2295 9.46081C20.3367 9.51621 20.4203 9.60859 20.4648 9.72105L20.9297 9.53711L21.3946 9.35317C21.2613 9.01623 21.0106 8.73883 20.6885 8.57239L20.459 9.0166ZM20.9297 9.53711L20.4647 9.72104C20.4731 9.74219 20.4852 9.78362 20.4923 9.88917C20.4997 9.99969 20.5 10.1437 20.5 10.3682H21H21.5C21.5 10.1567 21.5002 9.97382 21.49 9.82209C21.4795 9.66539 21.4564 9.50924 21.3946 9.35318L20.9297 9.53711ZM21 10.3682H20.5V11.6318H21H21.5V10.3682H21ZM21 11.6318H20.5C20.5 11.8561 20.4997 12.0002 20.4922 12.1107C20.4851 12.2164 20.473 12.258 20.4647 12.2791L20.9297 12.4629L21.3947 12.6467C21.4563 12.4907 21.4794 12.3346 21.49 12.1779C21.5002 12.0261 21.5 11.8432 21.5 11.6318H21ZM20.9297 12.4629L20.4648 12.2789C20.4204 12.391 20.3368 12.4834 20.2289 12.539L20.458 12.9834L20.6871 13.4278C21.0093 13.2617 21.2609 12.9846 21.3946 12.6469L20.9297 12.4629ZM20.458 12.9834L20.2289 12.539C20.2087 12.5494 20.1688 12.5654 20.0645 12.583C19.9554 12.6013 19.8122 12.6159 19.589 12.6382L19.6387 13.1357L19.6884 13.6333C19.8986 13.6123 20.0805 13.5943 20.2303 13.5691C20.3851 13.5431 20.538 13.5047 20.6871 13.4278L20.458 12.9834ZM19.6387 13.1357L19.589 12.6382C19.187 12.6784 18.856 12.7111 18.5987 12.7575C18.3462 12.803 18.0897 12.8728 17.8795 13.033L18.1826 13.4307L18.4857 13.8283C18.5007 13.8169 18.562 13.7802 18.776 13.7416C18.9853 13.7039 19.2698 13.6751 19.6884 13.6333L19.6387 13.1357ZM18.1826 13.4307L17.8795 13.033C17.4507 13.3599 17.2303 13.8917 17.3023 14.4262L17.7979 14.3594L18.2934 14.2926C18.2694 14.1145 18.3428 13.9373 18.4857 13.8283L18.1826 13.4307ZM17.7979 14.3594L17.3023 14.4262C17.3377 14.6882 17.4698 14.919 17.6162 15.1297C17.7654 15.3444 17.9763 15.6016 18.2322 15.9143L18.6191 15.5977L19.0061 15.281C18.7397 14.9554 18.5588 14.7338 18.4374 14.559C18.3132 14.3803 18.2959 14.3111 18.2934 14.2926L17.7979 14.3594ZM18.6191 15.5977L18.2322 15.9143C18.3742 16.0879 18.4651 16.1993 18.5295 16.2896C18.5909 16.3757 18.6078 16.4153 18.6147 16.4367L19.0908 16.2842L19.567 16.1317C19.5158 15.9719 19.4346 15.8365 19.3437 15.709C19.2556 15.5854 19.1397 15.4442 19.0061 15.281L18.6191 15.5977ZM19.0908 16.2842L18.6146 16.4364C18.6513 16.5512 18.6451 16.6762 18.5968 16.7877L19.0557 16.9863L19.5145 17.185C19.6585 16.8524 19.6777 16.478 19.5671 16.1319L19.0908 16.2842ZM19.0557 16.9863L18.5969 16.7875C18.5878 16.8084 18.5669 16.8464 18.4972 16.9262C18.4243 17.0097 18.3226 17.1119 18.164 17.2705L18.5176 17.624L18.8711 17.9776C19.0207 17.828 19.1501 17.6988 19.2503 17.5841C19.3536 17.4658 19.4477 17.339 19.5144 17.1852L19.0557 16.9863ZM18.5176 17.624L18.164 17.2705L17.2714 18.163L17.625 18.5166L17.9786 18.8702L18.8711 17.9776L18.5176 17.624ZM17.625 18.5166L17.2714 18.163C17.1127 18.3217 17.0106 18.4234 16.9272 18.4963C16.8474 18.566 16.8095 18.5868 16.7886 18.5959L16.9873 19.0547L17.1861 19.5135C17.34 19.4468 17.4668 19.3528 17.5851 19.2494C17.6997 19.1493 17.829 19.0198 17.9786 18.8702L17.625 18.5166ZM16.9873 19.0547L16.7886 18.5959C16.6775 18.644 16.5531 18.6502 16.4381 18.6135L16.2861 19.0898L16.1342 19.5662C16.4798 19.6765 16.8534 19.6576 17.186 19.5135L16.9873 19.0547ZM16.2861 19.0898L16.4381 18.6135C16.3696 18.5916 16.286 18.5353 15.9142 18.2312L15.5977 18.6182L15.2811 19.0052C15.5844 19.2533 15.8395 19.4721 16.1341 19.5662L16.2861 19.0898ZM15.5977 18.6182L15.9142 18.2312C15.6015 17.9753 15.344 17.7641 15.1293 17.6147C14.9186 17.4682 14.6875 17.3356 14.4249 17.3003L14.3584 17.7959L14.2919 18.2915C14.3102 18.2939 14.3792 18.3111 14.5583 18.4357C14.7333 18.5574 14.955 18.7385 15.2811 19.0052L15.5977 18.6182ZM14.3584 17.7959L14.4246 17.3003C13.8909 17.229 13.3597 17.4494 13.0332 17.8774L13.4307 18.1807L13.8282 18.484C13.9371 18.3412 14.1144 18.2677 14.2922 18.2915L14.3584 17.7959ZM13.4307 18.1807L13.0332 17.8774C12.8726 18.0878 12.8028 18.3446 12.7574 18.5972C12.7111 18.8546 12.6784 19.1859 12.6382 19.588L13.1357 19.6377L13.6333 19.6874C13.6751 19.2685 13.7039 18.9838 13.7416 18.7743C13.7801 18.56 13.8168 18.4988 13.8282 18.484L13.4307 18.1807ZM13.1357 19.6377L12.6382 19.588C12.6159 19.8114 12.6013 19.9548 12.583 20.0642C12.5654 20.1688 12.5493 20.2088 12.5389 20.229L12.9834 20.458L13.4279 20.687C13.5048 20.5378 13.5432 20.3846 13.5692 20.2297C13.5943 20.0798 13.6123 19.8977 13.6333 19.6874L13.1357 19.6377ZM12.9834 20.458L12.539 20.2288C12.4834 20.3367 12.3908 20.4205 12.2789 20.4648L12.4629 20.9297L12.6469 21.3946C12.9846 21.2609 13.2617 21.0091 13.4278 20.6872L12.9834 20.458ZM12.4629 20.9297L12.2789 20.4648C12.2579 20.4731 12.2164 20.4852 12.1105 20.4923C11.9997 20.4997 11.8554 20.5 11.6309 20.5V21V21.5C11.8424 21.5 12.0255 21.5002 12.1774 21.49C12.3342 21.4795 12.4906 21.4564 12.6468 21.3946L12.4629 20.9297ZM11.6309 21V20.5H10.3682V21V21.5H11.6309V21ZM10.3682 21V20.5C10.1437 20.5 9.99969 20.4997 9.88917 20.4923C9.78362 20.4852 9.74219 20.4731 9.72104 20.4647L9.53711 20.9297L9.35318 21.3946C9.50924 21.4564 9.66539 21.4795 9.82209 21.49C9.97382 21.5002 10.1567 21.5 10.3682 21.5V21ZM9.53711 20.9297L9.72105 20.4648C9.60859 20.4203 9.51621 20.3367 9.46081 20.2295L9.0166 20.459L8.57239 20.6885C8.73883 21.0106 9.01623 21.2613 9.35317 21.3946L9.53711 20.9297ZM9.0166 20.459L9.46092 20.2297C9.42795 20.1658 9.40859 20.0665 9.3608 19.5889L8.86328 19.6387L8.36577 19.6885C8.40478 20.0783 8.43048 20.4135 8.57228 20.6883L9.0166 20.459ZM8.86328 19.6387L9.3608 19.5889C9.32056 19.1868 9.2878 18.8556 9.24152 18.5982C9.1961 18.3457 9.12639 18.0888 8.96594 17.8784L8.56836 18.1816L8.17078 18.4848C8.18207 18.4996 8.21874 18.5608 8.25731 18.7752C8.295 18.9848 8.32384 19.2695 8.36577 19.6885L8.86328 19.6387ZM8.56836 18.1816L8.96587 17.8783C8.63907 17.45 8.1073 17.2293 7.57288 17.3014L7.63965 17.7969L7.70642 18.2924C7.88422 18.2684 8.06172 18.3419 8.17085 18.4849L8.56836 18.1816ZM7.63965 17.7969L7.57247 17.3014C7.31073 17.3369 7.08009 17.4688 6.86931 17.6153C6.65454 17.7645 6.39732 17.9753 6.08466 18.2313L6.40137 18.6182L6.71807 19.0051C7.04351 18.7387 7.26513 18.5579 7.43983 18.4366C7.61852 18.3124 7.68797 18.2949 7.70682 18.2923L7.63965 17.7969ZM6.40137 18.6182L6.08466 18.2313C5.91074 18.3736 5.79912 18.4648 5.7087 18.5293C5.6223 18.591 5.58283 18.6078 5.56162 18.6146L5.71387 19.0908L5.86612 19.5671C6.02638 19.5158 6.16202 19.4344 6.28969 19.3432C6.41334 19.255 6.55473 19.1388 6.71807 19.0051L6.40137 18.6182ZM5.71387 19.0908L5.56184 18.6145C5.44702 18.6511 5.32255 18.645 5.2113 18.5968L5.0127 19.0557L4.81409 19.5145C5.14655 19.6584 5.52012 19.6775 5.8659 19.5671L5.71387 19.0908ZM5.0127 19.0557L5.21147 18.5969C5.19054 18.5878 5.1526 18.5669 5.07283 18.4973C4.98937 18.4243 4.8872 18.3227 4.72855 18.164L4.375 18.5176L4.02145 18.8711C4.17103 19.0207 4.30029 19.1502 4.41491 19.2503C4.53323 19.3537 4.66002 19.4478 4.81392 19.5145L5.0127 19.0557ZM4.375 18.5176L4.72855 18.164L3.83598 17.2714L3.48242 17.625L3.12887 17.9786L4.02145 18.8711L4.375 18.5176ZM3.48242 17.625L3.83598 17.2714C3.67728 17.1127 3.57562 17.0106 3.50272 16.9272C3.43307 16.8474 3.41222 16.8095 3.40314 16.7886L2.94434 16.9873L2.48554 17.1861C2.55222 17.34 2.64626 17.4668 2.74964 17.5851C2.84976 17.6997 2.97927 17.829 3.12887 17.9786L3.48242 17.625ZM2.94434 16.9873L3.40316 16.7886C3.35505 16.6775 3.34884 16.5531 3.38553 16.4381L2.90918 16.2861L2.43283 16.1342C2.32256 16.4798 2.34147 16.8534 2.48551 17.186L2.94434 16.9873ZM2.90918 16.2861L3.38551 16.4381C3.40738 16.3696 3.46368 16.2861 3.76787 15.9142L3.38086 15.5977L2.99385 15.2811C2.74567 15.5845 2.52688 15.8395 2.43285 16.1341L2.90918 16.2861ZM3.38086 15.5977L3.76787 15.9142C4.02356 15.6017 4.23472 15.3444 4.38402 15.13C4.5305 14.9196 4.66324 14.6887 4.69864 14.4262L4.20312 14.3594L3.70761 14.2925C3.70516 14.3107 3.68796 14.3796 3.56335 14.5586C3.44158 14.7335 3.26053 14.9551 2.99385 15.2811L3.38086 15.5977ZM4.20312 14.3594L4.69866 14.426C4.7705 13.8918 4.54993 13.3599 4.12167 13.0332L3.81836 13.4307L3.51505 13.8282C3.65794 13.9372 3.73151 14.1148 3.70759 14.2927L4.20312 14.3594ZM3.81836 13.4307L4.12154 13.0331C3.91118 12.8727 3.65434 12.8029 3.40175 12.7574C3.14429 12.7111 2.81309 12.6784 2.41101 12.6382L2.36133 13.1357L2.31165 13.6333C2.73037 13.6751 3.01509 13.7039 3.22464 13.7416C3.43907 13.7802 3.50034 13.8169 3.51518 13.8283L3.81836 13.4307ZM2.36133 13.1357L2.41101 12.6382C2.18779 12.6159 2.04465 12.6013 1.93549 12.583C1.83126 12.5655 1.79127 12.5494 1.77107 12.539L1.54199 12.9834L1.31292 13.4278C1.46199 13.5047 1.61495 13.5431 1.76971 13.5691C1.91955 13.5943 2.10143 13.6123 2.31165 13.6333L2.36133 13.1357ZM1.54199 12.9834L1.77112 12.539C1.66326 12.4834 1.57958 12.3909 1.53522 12.2789L1.07031 12.4629L0.60541 12.6469C0.739096 12.9846 0.990726 13.2617 1.31287 13.4278L1.54199 12.9834ZM1.07031 12.4629L1.53529 12.2791C1.52693 12.2579 1.51487 12.2164 1.50777 12.1108C1.50033 12.0002 1.5 11.8562 1.5 11.6318H1H0.5C0.5 11.8432 0.499811 12.0261 0.510022 12.1779C0.520562 12.3346 0.543659 12.4907 0.605334 12.6467L1.07031 12.4629ZM1 11.6318H1.5V10.3682H1H0.5V11.6318H1ZM1 10.3682H1.5C1.5 10.1437 1.50032 9.99969 1.50775 9.88918C1.51485 9.78362 1.5269 9.74217 1.53527 9.721L1.07031 9.53711L0.605357 9.35322C0.543645 9.50925 0.520539 9.66539 0.510002 9.82208C0.499798 9.97382 0.5 10.1567 0.5 10.3682H1ZM1.07031 9.53711L1.53525 9.72104C1.57974 9.60859 1.66329 9.51622 1.77054 9.46081L1.54102 9.0166L1.31149 8.57239C0.989378 8.73883 0.738679 9.01621 0.605374 9.35318L1.07031 9.53711ZM1.54102 9.0166L1.7703 9.46093C1.83421 9.42795 1.93351 9.4086 2.41113 9.3608L2.36133 8.86328L2.31153 8.36577C1.92169 8.40479 1.58649 8.43049 1.31173 8.57227L1.54102 9.0166ZM2.36133 8.86328L2.41113 9.3608C2.81319 9.32055 3.14441 9.28783 3.40176 9.24156C3.65429 9.19616 3.91123 9.12645 4.12169 8.96584L3.81836 8.56836L3.51503 8.17088C3.5003 8.18212 3.43924 8.21879 3.22481 8.25734C3.01521 8.29502 2.73051 8.32383 2.31153 8.36577L2.36133 8.86328ZM3.81836 8.56836L4.12177 8.96578C4.54941 8.63929 4.77035 8.10838 4.69869 7.57415L4.20312 7.64062L3.70756 7.7071C3.73136 7.88451 3.65803 8.0617 3.51495 8.17094L3.81836 8.56836ZM4.20312 7.64062L4.69866 7.57398C4.66337 7.31155 4.53079 7.08041 4.38427 6.8697C4.23489 6.65489 4.02371 6.39745 3.76782 6.08473L3.38086 6.40137L2.9939 6.71801C3.2605 7.04383 3.44158 7.26564 3.56327 7.44063C3.68781 7.61973 3.70512 7.68895 3.70759 7.70727L4.20312 7.64062ZM3.38086 6.40137L3.76782 6.08473C3.62581 5.91118 3.53489 5.79954 3.47068 5.70932C3.40932 5.62312 3.39239 5.58338 3.38547 5.56172L2.90918 5.71387L2.43289 5.86601C2.48393 6.02579 2.56492 6.16126 2.65596 6.28918C2.74414 6.41307 2.86007 6.55446 2.9939 6.71801L3.38086 6.40137ZM2.90918 5.71387L3.38552 5.56187C3.34884 5.44693 3.35504 5.32252 3.40317 5.21137L2.94434 5.0127L2.4855 4.81402C2.34149 5.1466 2.32253 5.52015 2.43284 5.86586L2.90918 5.71387ZM2.94434 5.0127L3.40313 5.21145C3.4122 5.19052 3.43306 5.15259 3.50274 5.07283C3.57565 4.98938 3.67731 4.88721 3.83598 4.72855L3.48242 4.375L3.12887 4.02145C2.97928 4.17103 2.84978 4.30029 2.74965 4.41491C2.64628 4.53323 2.55222 4.66002 2.48554 4.81394L2.94434 5.0127ZM3.48242 4.375L3.83598 4.72855L4.72855 3.83598L4.375 3.48242L4.02145 3.12887L3.12887 4.02145L3.48242 4.375ZM4.375 3.48242L4.72855 3.83598C4.88722 3.6773 4.98938 3.57564 5.07283 3.50273C5.15258 3.43306 5.19051 3.41221 5.21145 3.40314L5.0127 2.94434L4.81394 2.48554C4.66002 2.55222 4.53323 2.64628 4.41491 2.74965C4.30029 2.84978 4.17103 2.97928 4.02145 3.12887L4.375 3.48242ZM5.0127 2.94434L5.21144 3.40314C5.32248 3.35504 5.44685 3.34882 5.56191 3.38553L5.71387 2.90918L5.86583 2.43283C5.52019 2.32257 5.14665 2.34142 4.81395 2.48553L5.0127 2.94434ZM5.71387 2.90918L5.56183 3.3855C5.63033 3.40737 5.71406 3.46383 6.08578 3.76788L6.40234 3.38086L6.71891 2.99384C6.41567 2.7458 6.1605 2.52689 5.86591 2.43286L5.71387 2.90918ZM6.40234 3.38086L6.08578 3.76788C6.3984 4.0236 6.65564 4.23456 6.87024 4.38374C7.08083 4.53014 7.31172 4.66245 7.57405 4.6977L7.64062 4.20215L7.7072 3.7066C7.68883 3.70413 7.61979 3.68691 7.44103 3.56264C7.26627 3.44116 7.04471 3.26033 6.71891 2.99384L6.40234 3.38086ZM7.64062 4.20215L7.57412 4.69771C8.10841 4.76941 8.63931 4.54861 8.96584 4.12071L8.56836 3.81738L8.17087 3.51406C8.06169 3.65713 7.88468 3.73042 7.70713 3.70659L7.64062 4.20215ZM8.56836 3.81738L8.96591 4.12062C9.12634 3.91028 9.19608 3.65368 9.24152 3.40123C9.28781 3.14403 9.32056 2.81305 9.36079 2.41114L8.86328 2.36133L8.36577 2.31152C8.32384 2.73027 8.29502 3.01471 8.25733 3.22408C8.21879 3.43819 8.18215 3.49928 8.17081 3.51415L8.56836 3.81738ZM8.86328 2.36133L9.36079 2.41114C9.40861 1.93355 9.42797 1.83419 9.46094 1.77028L9.0166 1.54102L8.57226 1.31175C8.43051 1.58649 8.4048 1.92171 8.36577 2.31152L8.86328 2.36133ZM9.0166 1.54102L9.46081 1.77054C9.51623 1.66328 9.60859 1.57974 9.72104 1.53525L9.53711 1.07031L9.35318 0.60537C9.0162 0.738676 8.73883 0.989384 8.5724 1.31149L9.0166 1.54102ZM9.53711 1.07031L9.72097 1.53528C9.74214 1.52691 9.78361 1.51486 9.88919 1.50776C9.99971 1.50032 10.1437 1.5 10.3682 1.5V1V0.5C10.1567 0.5 9.97382 0.499804 9.82207 0.51001C9.66539 0.52055 9.50926 0.543654 9.35325 0.605343L9.53711 1.07031ZM10.3682 1V1.5H11.6318V1V0.5H10.3682V1ZM11 7V6.5C8.51472 6.5 6.5 8.51472 6.5 11H7H7.5C7.5 9.067 9.067 7.5 11 7.5V7ZM7 11H6.5C6.5 13.4853 8.51472 15.5 11 15.5V15V14.5C9.067 14.5 7.5 12.933 7.5 11H7ZM11 15V15.5C13.4853 15.5 15.5 13.4853 15.5 11H15H14.5C14.5 12.933 12.933 14.5 11 14.5V15ZM15 11H15.5C15.5 8.51472 13.4853 6.5 11 6.5V7V7.5C12.933 7.5 14.5 9.067 14.5 11H15Z" fill="white"/>
</svg>
