<svg width="24" height="24" viewBox="0 0 24 24" fill="none" xmlns="http://www.w3.org/2000/svg">
<path d="M12 2.5C14.2366 2.5 16.1601 3.83555 17.0195 5.75C17.1021 5.934 17.1609 6.06425 17.2061 6.15918C17.2284 6.2061 17.245 6.23978 17.2578 6.26367C17.2666 6.27993 17.2718 6.28831 17.2734 6.29102C17.3428 6.38798 17.3791 6.41784 17.4004 6.43164C17.4217 6.44544 17.4639 6.46661 17.5811 6.49023C17.6167 6.4974 17.6908 6.5 18 6.5C19.933 6.5 21.5 8.067 21.5 10C21.5 11.933 19.933 13.5 18 13.5H17.3281L16.3281 12.5H18L18.2559 12.4873C19.5164 12.3592 20.5 11.2943 20.5 10C20.5 8.61929 19.3807 7.5 18 7.5C17.7495 7.5 17.543 7.503 17.3828 7.4707C17.2024 7.43429 17.0252 7.37911 16.8574 7.27051C16.6896 7.16191 16.5671 7.02271 16.46 6.87305C16.4019 6.79189 16.3499 6.68804 16.3027 6.58887C16.2517 6.48154 16.1881 6.33888 16.1074 6.15918C15.4034 4.59079 13.8285 3.5 12 3.5C10.1715 3.5 8.59663 4.59079 7.89258 6.15918C7.81191 6.33888 7.74831 6.48154 7.69727 6.58887C7.6501 6.68804 7.59809 6.79189 7.54004 6.87305C7.43295 7.02271 7.31035 7.16191 7.14258 7.27051C6.97479 7.37911 6.7976 7.43429 6.61719 7.4707C6.45704 7.503 6.25047 7.5 6 7.5C4.61929 7.5 3.5 8.61929 3.5 10C3.5 11.3807 4.61929 12.5 6 12.5H7.67188L6.67188 13.5H6C4.067 13.5 2.5 11.933 2.5 10C2.5 8.067 4.067 6.5 6 6.5C6.30923 6.5 6.3833 6.4974 6.41895 6.49023C6.53607 6.46661 6.57829 6.44544 6.59961 6.43164C6.62092 6.41784 6.65718 6.38798 6.72656 6.29102C6.72824 6.28831 6.73344 6.27993 6.74219 6.26367C6.75503 6.23978 6.77163 6.2061 6.79395 6.15918C6.83909 6.06425 6.89787 5.934 6.98047 5.75C7.83986 3.83555 9.76338 2.5 12 2.5Z" fill="black"/>
<path d="M12 12L11.6464 11.6464L12 11.2929L12.3536 11.6464L12 12ZM12.5 21C12.5 21.2761 12.2761 21.5 12 21.5C11.7239 21.5 11.5 21.2761 11.5 21L12.5 21ZM8 16L7.64645 15.6464L11.6464 11.6464L12 12L12.3536 12.3536L8.35355 16.3536L8 16ZM12 12L12.3536 11.6464L16.3536 15.6464L16 16L15.6464 16.3536L11.6464 12.3536L12 12ZM12 12L12.5 12L12.5 21L12 21L11.5 21L11.5 12L12 12Z" fill="black"/>
</svg>
